# xmcd
#
# Track frame offsets:
#	150
#	27007
#	57082
#
# Disc length: 1125 seconds
#
# Revision: 9
# Processed by: cddbd v1.5.1PL0 Copyright (c) Steve Scherf et al.
# Submitted via: EasyCDDAExtractor 8.0.1.1
#
DISCID=19046303
DTITLE=Various Artist - Feel Like dance
DYEAR=1900
DGENRE=J-POP
TTITLE0=Ricky Martin - Bom Bom De Azucar (M&N Classic Club Mix)
TTITLE1=Albita - Valga El Brillo De Tus Ojos (DJ Greeks Long Island Latino Mix
TTITLE1=)
TTITLE2=Robi Draco Rosa - Vagabundo (Meme's Club Remix)
EXTD=
EXTT0=Ricky Martin
EXTT1=Albita
EXTT2=Robi Draco Rosa
PLAYORDER=
